<?xml version="1.0" standalone="no"?>
<!DOCTYPE svg PUBLIC "-//W3C//DTD SVG 20010904//EN"
 "http://www.w3.org/TR/2001/REC-SVG-20010904/DTD/svg10.dtd">
<svg version="1.0" xmlns="http://www.w3.org/2000/svg"
 width="384.000000pt" height="384.000000pt" viewBox="0 0 384.000000 384.000000"
 preserveAspectRatio="xMidYMid meet">
<metadata>
Created by potrace 1.11, written by Peter Selinger 2001-2013
</metadata>
<g transform="translate(0.000000,384.000000) scale(0.100000,-0.100000)"
fill="#000000" stroke="none">
<path d="M1669 3795 c-936 -128 -1629 -920 -1629 -1860 0 -855 578 -1602 1405
-1815 862 -222 1758 188 2150 985 76 155 114 261 149 416 262 1184 -634 2297
-1842 2288 -75 -1 -180 -7 -233 -14z m526 -179 c505 -85 958 -405 1208 -854
146 -261 211 -515 211 -827 0 -250 -31 -413 -121 -640 -162 -410 -529 -778
-938 -938 -229 -90 -390 -121 -640 -121 -196 0 -304 14 -460 59 -282 82 -506
211 -718 415 -270 260 -440 580 -504 950 -23 129 -23 421 0 550 64 370 234
690 504 950 289 278 601 421 1033 474 68 8 336 -3 425 -18z"/>
<path d="M1241 3010 c-111 -16 -186 -58 -285 -156 -64 -64 -119 -141 -159
-220 -21 -41 -107 -275 -107 -290 0 -2 20 -4 44 -4 41 0 45 3 78 53 60 89 135
164 196 194 55 27 64 28 235 31 167 4 177 3 177 -15 0 -56 -113 -978 -126
-1029 -24 -96 -68 -159 -209 -304 -160 -163 -179 -196 -180 -301 0 -67 3 -81
30 -124 87 -141 264 -162 387 -47 54 50 105 141 131 232 49 169 105 610 167
1310 12 129 23 245 26 258 l4 22 245 0 c191 0 243 -3 240 -12 -2 -7 -13 -86
-25 -176 -61 -494 -81 -989 -47 -1186 53 -304 180 -485 364 -517 115 -20 237
21 339 113 143 132 229 331 247 576 l6 72 -53 0 -53 0 -12 -65 c-17 -92 -51
-164 -99 -207 -96 -87 -230 -72 -330 36 -49 53 -76 110 -91 192 -25 132 -4
788 35 1122 l6 52 284 0 284 0 0 200 0 200 -847 -1 c-467 -1 -872 -5 -902 -9z"/>
</g>
</svg>
